<svg xmlns="http://www.w3.org/2000/svg" width="20" height="17" viewBox="0 0 20 17"><g><g><path fill="#fff" d="M8.976 15.385c0 .892-.727 1.615-1.623 1.615a1.619 1.619 0 0 1-1.623-1.615c0-.891.727-1.614 1.623-1.614s1.623.723 1.623 1.614zm7.081 0c0 .892-.727 1.615-1.622 1.615a1.618 1.618 0 0 1-1.623-1.615c0-.891.726-1.614 1.623-1.614.895 0 1.622.723 1.622 1.614zm3.351-8.926l-1.996 5.9s-.163.875-1.007.875H6.334c-1.004 0-1.047-1.1-1.047-1.1L4.025 2.705.783 1.883a.907.907 0 1 1 .45-1.76l3.844.977a.909.909 0 0 1 .679.765l.577 4.672.605 4.796h9.111l.474-1.589-7.638-.003a.753.753 0 0 1-.755-.751c0-.415.338-.751.755-.751l8.085-.002.505-1.699H9.522a.812.812 0 0 1-.813-.81c0-.447.364-.81.813-.81l8.989.002c1.489 0 .897 1.538.897 1.54z"/></g></g></svg>