<svg xmlns="http://www.w3.org/2000/svg" width="26" height="22" viewBox="0 0 26 22"><g><g><path fill="#ff5816" d="M11.668 19.91A2.1 2.1 0 0 1 9.56 22a2.1 2.1 0 0 1-2.11-2.09 2.1 2.1 0 0 1 2.11-2.089 2.1 2.1 0 0 1 2.11 2.089zm9.207 0a2.1 2.1 0 0 1-2.11 2.09 2.1 2.1 0 0 1-2.11-2.09c0-1.154.945-2.089 2.11-2.089a2.1 2.1 0 0 1 2.11 2.089zM25.23 8.358l-2.595 7.635s-.212 1.134-1.31 1.134H8.235c-1.305 0-1.36-1.424-1.36-1.424L5.231 3.501 1.017 2.436a1.173 1.173 0 0 1-.855-1.428A1.186 1.186 0 0 1 1.603.16L6.6 1.423c.471.12.821.512.883.99l.75 6.047.786 6.207h11.845l.616-2.057-9.93-.004a.977.977 0 0 1-.98-.972c0-.537.439-.972.98-.972l10.512-.002.655-2.199H12.38c-.584 0-1.058-.469-1.058-1.048 0-.579.474-1.048 1.058-1.048l11.685.001c1.936 0 1.167 1.992 1.167 1.992z"/></g></g></svg>