<svg xmlns="http://www.w3.org/2000/svg" width="15" height="20" viewBox="0 0 15 20"><g><g><path fill="#499c54" d="M.117 10.698a7.892 7.892 0 0 1 .245-3.013c.88-3.127 3.64-5.426 6.912-5.467V.174c0-.113.137-.174.226-.105l4.036 3.09c.066.053.066.158 0 .207l-4.032 3.09c-.093.069-.226.008-.226-.106V4.31c-2.152.037-3.99 1.42-4.78 3.375a5.633 5.633 0 0 0 .744 5.543 1.075 1.075 0 0 1-.19 1.5.985.985 0 0 1-1.394-.202 7.667 7.667 0 0 1-1.541-3.828zm11.84-5.426c.44-.337 1.05-.243 1.393.203a7.625 7.625 0 0 1 1.537 3.828 7.97 7.97 0 0 1-.245 3.012c-.876 3.131-3.64 5.43-6.912 5.467v2.044c0 .113-.133.174-.226.105l-4.032-3.09c-.066-.048-.066-.154 0-.207l4.036-3.09c.09-.069.226-.008.226.106v2.04c2.152-.033 3.989-1.42 4.779-3.375a5.67 5.67 0 0 0 .409-2.408 5.547 5.547 0 0 0-1.152-3.135 1.078 1.078 0 0 1 .186-1.5z"/></g></g></svg>