<svg xmlns="http://www.w3.org/2000/svg" width="25" height="25" viewBox="0 0 25 25"><g><g><path fill="#445667" d="M20.786 4.213A11.685 11.685 0 0 0 12.5.781a11.681 11.681 0 0 0-8.286 3.432A11.682 11.682 0 0 0 .781 12.5c0 3.235 1.312 6.166 3.432 8.286a11.683 11.683 0 0 0 8.286 3.432c3.236 0 6.165-1.312 8.286-3.432a11.68 11.68 0 0 0 3.433-8.286c0-3.236-1.312-6.166-3.432-8.287zm.553-.551A12.461 12.461 0 0 1 25 12.5c0 3.452-1.399 6.577-3.661 8.84a12.464 12.464 0 0 1-8.84 3.66 12.462 12.462 0 0 1-8.838-3.661A12.465 12.465 0 0 1 0 12.499c0-3.45 1.399-6.576 3.661-8.838A12.462 12.462 0 0 1 12.5 0a12.46 12.46 0 0 1 8.839 3.662zm-9.23 14.307a.39.39 0 1 1 0 .782H8.986a.39.39 0 0 1 0-.782h1.17v-2.343H8.985a.39.39 0 0 1 0-.781h1.172v-.781H8.984a.39.39 0 0 1 0-.782h1.172v-5.47H8.985a.39.39 0 0 1 0-.78h4.687c.957 0 1.827.384 2.461 1.007l.026.023a3.507 3.507 0 0 1 1.03 2.486c0 .956-.384 1.825-1.007 2.46l-.023.025a3.507 3.507 0 0 1-2.487 1.03h-2.735v.782h3.517a.39.39 0 0 1 0 .781h-3.517v2.343zm1.562-4.687h.001c.755 0 1.44-.305 1.934-.8l.022-.02c.48-.492.78-1.168.78-1.913 0-.755-.307-1.44-.802-1.934l-.02-.022a2.724 2.724 0 0 0-1.914-.78h-2.735v5.47z"/></g></g></svg>