<svg xmlns="http://www.w3.org/2000/svg" width="22" height="22" viewBox="0 0 22 22"><g><g><path fill="#ff5816" d="M21.657 21.676a1.22 1.22 0 0 1-.832.323c-.33 0-.638-.126-.866-.355l-5.472-5.487a9.35 9.35 0 0 1-5.277 1.607c-5.08 0-9.212-3.984-9.212-8.882S4.13 0 9.21 0c5.079 0 9.211 3.984 9.211 8.882 0 2.096-.765 4.11-2.16 5.71l5.43 5.446c.459.46.444 1.195-.034 1.638zM2.401 8.882c0 3.62 3.054 6.565 6.809 6.565 3.754 0 6.808-2.945 6.808-6.565 0-3.62-3.054-6.565-6.808-6.565-3.755 0-6.81 2.945-6.81 6.565z"/></g></g></svg>